<svg  viewBox="0 0 60 28" xmlns="http://www.w3.org/2000/svg" xmlns:svg="http://www.w3.org/2000/svg">
 <g class="layer">
  <title>Layer 1</title>
  <g id="svg_2">
   <path id="svg_4" fill="#2f4859" d="m33.05715,12.41835c-1.10365,-1.59073 -2.13514,-2.38384 -3.09899,-2.35549c-0.91166,0.02577 -1.84651,0.8105 -2.77685,2.33229l-0.83756,-0.51156c1.1146,-1.82202 2.31941,-2.76396 3.5849,-2.80069l0.07989,0c1.29565,0 2.5565,0.90972 3.85292,2.77878l-0.80432,0.55666l0.00001,0.00001z"/>
   <path id="lens-left" fill="#3e6b82" d="m26.96548,8.69119s-0.81695,-4.57452 -6.6156,-5.71747s-18.94931,-1.47282 -19.19413,7.26954s1.14295,15.10991 10.37252,15.35409c9.22944,0.24418 16.74381,-12.41425 15.43721,-16.90617l0,0.00001z"/>
   <path id="svg_7" fill="#2f4859" d="m11.78521,26.09152c-0.0902,0 -0.17975,0 -0.26995,0c-3.50759,-0.09342 -6.06989,-1.04373 -7.83329,-2.90635c-2.89217,-3.05453 -3.14795,-8.26173 -3.01652,-12.95029c0.00206,-2.17084 1.00314,-4.21991 2.71435,-5.55576c4.40443,-3.5179 13.08881,-2.96369 17.06479,-2.18024c5.88756,1.1597 6.91261,5.64918 6.9983,6.08407c0.68938,2.43216 -0.87558,6.77989 -3.81427,10.589c-3.40631,4.40881 -7.70829,6.91957 -11.84341,6.91957zm2.22289,-23.21251c-3.60165,0 -7.5556,0.59467 -10.01623,2.56037c-1.48184,1.15919 -2.34724,2.93611 -2.34647,4.81741c-0.12886,4.49012 0.1018,9.45687 2.74785,12.25124c1.57591,1.66418 3.91413,2.51269 7.14777,2.60031c3.9122,0.10244 8.02464,-2.2814 11.31059,-6.5415c2.68085,-3.47473 4.24722,-7.66126 3.64289,-9.73919l-0.0116,-0.04961c-0.0335,-0.17975 -0.85367,-4.26397 -6.22838,-5.32381c-2.05989,-0.38438 -4.15097,-0.57702 -6.24642,-0.57521l0,-0.00001z"/>
   <path id="lens-right" fill="#3e6b82" d="m33.03524,8.69119s0.81695,-4.57452 6.61624,-5.71747s18.94931,-1.47025 19.19413,7.26954s-1.1436,15.10991 -10.37317,15.35409c-9.22944,0.24418 -16.74381,-12.41425 -15.43721,-16.90617l0.00001,0.00001z"/>
   <path id="svg_9" fill="#2f4859" d="m48.21615,26.09152c-4.13576,0 -8.43698,-2.51269 -11.84341,-6.92549c-2.93856,-3.80911 -4.50365,-8.15671 -3.81427,-10.589c0.08569,-0.43489 1.11009,-4.92307 6.9983,-6.08407c3.97598,-0.78409 12.65972,-1.33753 17.06414,2.18024c1.71147,1.33559 2.71268,3.38479 2.71435,5.55576c0.12886,4.69113 -0.1237,9.89833 -3.01587,12.95029c-1.76404,1.86261 -4.32647,2.81293 -7.83393,2.90635c-0.08955,0.00464 -0.17975,0.00593 -0.26931,0.00593l0,-0.00001zm-2.22289,-23.21251c-2.09649,-0.00206 -4.18872,0.19058 -6.24965,0.57534c-5.40822,1.06628 -6.22065,5.28322 -6.22838,5.32317l-0.0116,0.05025c-0.60111,2.07974 0.96384,6.26446 3.64482,9.73907c3.28583,4.26075 7.40033,6.64008 11.31124,6.5415c3.23429,-0.08569 5.57251,-0.93614 7.14777,-2.60031c2.64606,-2.79424 2.87413,-7.76113 2.7485,-12.25124c0.00052,-1.8813 -0.86501,-3.65796 -2.34647,-4.81741c-2.46051,-1.9657 -6.41522,-2.56037 -10.01623,-2.56037z"/>
  </g>
 </g>
</svg>
